<?xml version="1.0" encoding="utf-8"?>
<!-- Generator: Adobe Illustrator 19.1.0, SVG Export Plug-In . SVG Version: 6.00 Build 0)  -->
<svg version="1.1" id="Layer_1" xmlns="http://www.w3.org/2000/svg" xmlns:xlink="http://www.w3.org/1999/xlink" x="0px" y="0px"
	 viewBox="0 0 297.7 54.6" style="enable-background:new 0 0 297.7 54.6;" xml:space="preserve">
<style type="text/css">
	.st0{fill:#333333;}
	.st1{fill:#FFFFFF;}
	.st2{fill:none;stroke:#40372A;stroke-width:2.0857;stroke-linecap:round;stroke-linejoin:round;stroke-miterlimit:10;}
	.st3{fill:none;stroke:#40372A;stroke-width:1.3904;stroke-linecap:round;stroke-linejoin:round;stroke-miterlimit:10;}
	.st4{fill:none;stroke:#40372A;stroke-width:1.125;stroke-linecap:round;stroke-linejoin:round;stroke-miterlimit:10;}
	.st5{fill:none;stroke:#40372A;stroke-linecap:round;stroke-linejoin:round;stroke-miterlimit:10;}
	.st6{fill:none;stroke:#40372A;stroke-width:2.125;stroke-linecap:round;stroke-linejoin:round;stroke-miterlimit:10;}
	.st7{fill:none;stroke:#40372A;stroke-width:2.25;stroke-linecap:round;stroke-linejoin:round;stroke-miterlimit:10;}
	.st8{fill:none;stroke:#40372A;stroke-width:2.2399;stroke-linecap:round;stroke-linejoin:round;stroke-miterlimit:10;}
	.st9{fill:none;stroke:#58A618;stroke-width:2.0857;stroke-linecap:round;stroke-linejoin:round;stroke-miterlimit:10;}
	.st10{fill:none;stroke:#58A618;stroke-width:1.3904;stroke-linecap:round;stroke-linejoin:round;stroke-miterlimit:10;}
	.st11{fill:none;stroke:#58A618;stroke-width:1.125;stroke-linecap:round;stroke-linejoin:round;stroke-miterlimit:10;}
	.st12{fill:none;stroke:#58A618;stroke-linecap:round;stroke-linejoin:round;stroke-miterlimit:10;}
	.st13{fill:none;stroke:#58A618;stroke-width:2.125;stroke-linecap:round;stroke-linejoin:round;stroke-miterlimit:10;}
	.st14{fill:none;stroke:#58A618;stroke-width:2.25;stroke-linecap:round;stroke-linejoin:round;stroke-miterlimit:10;}
	.st15{fill:none;stroke:#58A618;stroke-width:2.2399;stroke-linecap:round;stroke-linejoin:round;stroke-miterlimit:10;}
	.st16{fill:#ADC48D;}
	.st17{fill:#F6F8DF;}
	.st18{fill:#58A618;}
	.st19{fill:none;stroke:#E94046;stroke-width:9;stroke-linecap:round;stroke-linejoin:round;stroke-miterlimit:10;}
	.st20{fill:#00BBD7;}
	.st21{fill:#DB5C34;}
	.st22{fill:none;stroke:#DB5C34;stroke-linecap:round;stroke-miterlimit:10;}
	.st23{fill:none;stroke:#00BBD7;stroke-linecap:round;stroke-miterlimit:10;}
	.st24{fill:none;stroke:#58A618;stroke-linecap:round;stroke-miterlimit:10;}
</style>
<path class="st1" d="M35.2,54.6h-7.4L11.2,27.9v26.8H0V0h7.4L24,26.8V0h11.2V54.6z"/>
<path class="st1" d="M73.7,54.6H62.4V27.8L45.3,0h11.8l11,17.8L79,0h11.8L73.7,27.8V54.6z"/>
<g>
	<g>
		<path class="st1" d="M289.6,0H264v54.6h25.6c4.5,0,8.1-3.6,8.1-8.1V8.1C297.7,3.6,294.1,0,289.6,0z M285,40.4
			c0,0.8-0.7,1.5-1.5,1.5h-6.9V12h6.9c0.8,0,1.5,0.7,1.5,1.5V40.4z"/>
		<path class="st0" d="M289.8,5h-20.9v44.7h20.9c1.6,0,3-1.3,3-3V7.9C292.8,6.3,291.5,5,289.8,5z M290,45.3c0,0.8-0.7,1.5-1.5,1.5
			h-16.8V7.9h16.8c0.8,0,1.5,0.7,1.5,1.5V45.3z"/>
	</g>
	<g>
		<g id="LINE_32_">
			<polygon class="st1" points="188.4,33.8 167.4,33.8 167.4,41.8 188.4,41.8 188.4,54.6 154.7,54.6 154.7,0 188.4,0 188.4,12.8 
				167.4,12.8 167.4,20.9 188.4,20.9 			"/>
		</g>
		<g id="LINE_31_">
			<polygon class="st0" points="162.4,46.8 162.4,28.8 183.4,28.8 183.4,25.9 162.4,25.9 162.4,7.9 183.5,7.9 183.5,5 159.6,5 
				159.6,49.7 183.5,49.7 183.5,46.8 			"/>
		</g>
	</g>
	<g>
		<g id="LINE_30_">
			<polygon class="st1" points="243.1,33.8 222,33.8 222,41.8 243.1,41.8 243.1,54.6 209.3,54.6 209.3,0 243.1,0 243.1,12.8 
				222,12.8 222,20.9 243.1,20.9 			"/>
		</g>
		<g id="LINE_29_">
			<polygon class="st0" points="217.1,46.8 217.1,28.8 238.1,28.8 238.1,25.9 217.1,25.9 217.1,7.9 238.1,7.9 238.1,5 214.3,5 
				214.3,49.7 238.1,49.7 238.1,46.8 			"/>
		</g>
	</g>
	<g>
		<path class="st1" d="M133.8,12.7V0h-25.6c-4.5,0-8.1,3.6-8.1,8.1v17.3c0,4.5,3.6,8.1,8.1,8.1h11.4c0.8,0,1.5,0.7,1.5,1.5v5.4
			c0,0.8-0.7,1.5-1.5,1.5H100v12.7h25.6c4.5,0,8.1-3.6,8.1-8.1V29c0-4.5-3.6-8.1-8.1-8.1h-11.4c-0.8,0-1.5-0.7-1.5-1.5v-5.2
			c0-0.8,0.7-1.5,1.5-1.5H133.8z"/>
		<path class="st0" d="M129.3,7.8V5h-4.1h-16.4c-2,0-3.7,1.1-3.7,3.2v16.8c0,2,1.7,3.7,3.7,3.7h15.9c0.8,0,1.5,0.7,1.5,1.5v15.3
			c0,0.8-0.7,1.5-1.5,1.5H105v2.8h20.1c2,0,3.7-1.1,3.7-3.2v-17c0-2-1.7-3.7-3.7-3.7h-15.8c-0.8,0-1.6-0.7-1.6-1.5V9.2
			c0-0.8,0.7-1.5,1.5-1.5H129.3z"/>
	</g>
</g>
</svg>
